<svg xmlns="http://www.w3.org/2000/svg" viewBox="0 0 64 64">
  <defs>
    <linearGradient id="bg" x1="0" y1="0" x2="1" y2="1">
      <stop offset="0%" stop-color="#38bdf8"/>
      <stop offset="50%" stop-color="#a78bfa"/>
      <stop offset="100%" stop-color="#facc15"/>
    </linearGradient>
  </defs>
  <rect width="64" height="64" rx="16" fill="url(#bg)"/>
  <!-- Wheat crops icon -->
  <g transform="translate(12,8)" stroke="#0b1020" stroke-width="2" fill="none" stroke-linecap="round">
    <path d="M20 44V18"/>
    <path d="M20 22c-4-1-6-4-6-8 4 1 6 4 6 8Z" fill="#F7E8A3" stroke="none"/>
    <path d="M20 26c4-1 6-4 6-8-4 1-6 4-6 8Z" fill="#F7E8A3" stroke="none"/>
    <path d="M20 30c-4-1-6-4-6-8 4 1 6 4 6 8Z" fill="#F7E8A3" stroke="none"/>
    <path d="M20 34c4-1 6-4 6-8-4 1-6 4-6 8Z" fill="#F7E8A3" stroke="none"/>
    <path d="M12 44V26"/>
    <path d="M28 44V26"/>
    <path d="M12 28c-3-.5-4-3-4-6 3 .5 4 3 4 6Z" fill="#F7E8A3" stroke="none"/>
    <path d="M28 28c3-.5 4-3 4-6-3 .5-4 3-4 6Z" fill="#F7E8A3" stroke="none"/>
  </g>
</svg>
